ISO-10303-21;
HEADER;
FILE_DESCRIPTION (( 'STEP AP214' ),
    '1' );
FILE_NAME ('ANT1204F002R0315A.STEP',
    '2026-04-07T23:38:09',
    ( '' ),
    ( '' ),
    'SwSTEP 2.0',
    'SolidWorks 2024',
    '' );
FILE_SCHEMA (( 'AUTOMOTIVE_DESIGN' ));
ENDSEC;

DATA;
#1 = LINE ( 'NONE', #82, #263 ) ;
#2 = ORIENTED_EDGE ( 'NONE', *, *, #184, .F. ) ;
#3 = LINE ( 'NONE', #186, #204 ) ;
#4 = PRODUCT_DEFINITION ( 'UNKNOWN', '', #131, #18 ) ;
#5 = AXIS2_PLACEMENT_3D ( 'NONE', #84, #254, #79 ) ;
#6 = ORIENTED_EDGE ( 'NONE', *, *, #76, .T. ) ;
#7 = DIRECTION ( 'NONE',  ( 0.000000000000000000, 1.000000000000000000, 0.000000000000000000 ) ) ;
#8 = DIRECTION ( 'NONE',  ( 0.000000000000000000, 0.000000000000000000, -1.000000000000000000 ) ) ;
#9 = PRESENTATION_STYLE_ASSIGNMENT (( #113 ) ) ;
#10 = VECTOR ( 'NONE', #34, 1000.000000000000000 ) ;
#11 = DIRECTION ( 'NONE',  ( 0.000000000000000000, 0.000000000000000000, 1.000000000000000000 ) ) ;
#12 = CARTESIAN_POINT ( 'NONE',  ( 0.000000000000000000, 1.599999959580600262, 0.000000000000000000 ) ) ;
#13 = PRESENTATION_LAYER_ASSIGNMENT (  '', '', ( #240 ) ) ;
#14 = DIRECTION ( 'NONE',  ( 0.000000000000000000, -1.000000000000000000, 0.000000000000000000 ) ) ;
#15 = SHAPE_DEFINITION_REPRESENTATION ( #247, #35 ) ;
#16 = CARTESIAN_POINT ( 'NONE',  ( 0.000000000000000000, 0.000000000000000000, 0.000000000000000000 ) ) ;
#17 = PLANE ( 'NONE',  #5 ) ;
#18 = PRODUCT_DEFINITION_CONTEXT ( 'detailed design', #136, 'design' ) ;
#19 = AXIS2_PLACEMENT_3D ( 'NONE', #194, #193, #243 ) ;
#20 = ADVANCED_FACE ( 'NONE', ( #235 ), #127, .T. ) ;
#21 = ORIENTED_EDGE ( 'NONE', *, *, #242, .F. ) ;
#22 = DIRECTION ( 'NONE',  ( 0.000000000000000000, 1.000000000000000000, 0.000000000000000000 ) ) ;
#23 = ORIENTED_EDGE ( 'NONE', *, *, #242, .T. ) ;
#24 = ADVANCED_FACE ( 'NONE', ( #192 ), #26, .T. ) ;
#25 = DIRECTION ( 'NONE',  ( 0.000000000000000000, -1.000000000000000000, 0.000000000000000000 ) ) ;
#26 = PLANE ( 'NONE',  #273 ) ;
#27 = FACE_OUTER_BOUND ( 'NONE', #253, .T. ) ;
#28 = COLOUR_RGB ( '',0.7921568627450980005, 0.8196078431372548767, 0.9333333333333333481 ) ;
#29 = CARTESIAN_POINT ( 'NONE',  ( 0.000000000000000000, 0.000000000000000000, 4.000000189989805222 ) ) ;
#30 =( LENGTH_UNIT ( ) NAMED_UNIT ( * ) SI_UNIT ( .MILLI., .METRE. ) );
#31 = EDGE_CURVE ( 'NONE', #106, #176, #237, .T. ) ;
#32 = LINE ( 'NONE', #158, #75 ) ;
#33 = EDGE_LOOP ( 'NONE', ( #74, #111, #157 ) ) ;
#34 = DIRECTION ( 'NONE',  ( -0.9509772280537742706, 0.000000000000000000, 0.3092609120518785004 ) ) ;
#35 = ADVANCED_BREP_SHAPE_REPRESENTATION ( 'ANT1204F002R0315A', ( #182, #216 ), #154 ) ;
#36 = CARTESIAN_POINT ( 'NONE',  ( 0.000000000000000000, 1.599999959580600262, 0.000000000000000000 ) ) ;
#37 = APPLICATION_PROTOCOL_DEFINITION ( 'draft international standard', 'automotive_design', 1998, #272 ) ;
#38 = CARTESIAN_POINT ( 'NONE',  ( 12.29999959468841553, 1.599999959580600262, 4.000000189989805222 ) ) ;
#39 = DIRECTION ( 'NONE',  ( 0.000000000000000000, 1.000000000000000000, 0.000000000000000000 ) ) ;
#40 = ADVANCED_FACE ( 'NONE', ( #89 ), #215, .T. ) ;
#41 = ORIENTED_EDGE ( 'NONE', *, *, #152, .F. ) ;
#42 = CARTESIAN_POINT ( 'NONE',  ( 0.000000000000000000, 0.000000000000000000, 0.000000000000000000 ) ) ;
#43 = ADVANCED_FACE ( 'NONE', ( #27 ), #17, .T. ) ;
#44 = VECTOR ( 'NONE', #210, 1000.000000000000000 ) ;
#45 = ORIENTED_EDGE ( 'NONE', *, *, #246, .T. ) ;
#46 = LINE ( 'NONE', #126, #197 ) ;
#47 = ORIENTED_EDGE ( 'NONE', *, *, #121, .T. ) ;
#48 = CARTESIAN_POINT ( 'NONE',  ( -8.673617379884035472E-16, 0.000000000000000000, -2.168404344971008868E-16 ) ) ;
#49 = EDGE_LOOP ( 'NONE', ( #275, #21, #65 ) ) ;
#50 = VECTOR ( 'NONE', #133, 1000.000000000000000 ) ;
#51 = CARTESIAN_POINT ( 'NONE',  ( 12.29999959468841553, 1.599999959580600262, 0.000000000000000000 ) ) ;
#52 = SURFACE_STYLE_FILL_AREA ( #206 ) ;
#53 =( NAMED_UNIT ( * ) SI_UNIT ( $, .STERADIAN. ) SOLID_ANGLE_UNIT ( ) );
#54 = DIRECTION ( 'NONE',  ( 0.000000000000000000, -0.3713906530590801447, 0.9284767002032683347 ) ) ;
#55 = ADVANCED_FACE ( 'NONE', ( #60 ), #99, .F. ) ;
#56 = VECTOR ( 'NONE', #25, 1000.000000000000000 ) ;
#57 = AXIS2_PLACEMENT_3D ( 'NONE', #137, #205, #200 ) ;
#58 = LINE ( 'NONE', #38, #80 ) ;
#59 = EDGE_LOOP ( 'NONE', ( #92, #145, #147 ) ) ;
#60 = FACE_OUTER_BOUND ( 'NONE', #180, .T. ) ;
#61 = ORIENTED_EDGE ( 'NONE', *, *, #31, .F. ) ;
#62 = DIRECTION ( 'NONE',  ( 0.000000000000000000, 0.000000000000000000, 1.000000000000000000 ) ) ;
#63 = ORIENTED_EDGE ( 'NONE', *, *, #163, .F. ) ;
#64 = DIRECTION ( 'NONE',  ( 0.000000000000000000, 0.000000000000000000, 1.000000000000000000 ) ) ;
#65 = ORIENTED_EDGE ( 'NONE', *, *, #116, .F. ) ;
#66 = DIRECTION ( 'NONE',  ( 0.000000000000000000, 0.000000000000000000, -1.000000000000000000 ) ) ;
#67 = CARTESIAN_POINT ( 'NONE',  ( 0.000000000000000000, 0.000000000000000000, 0.000000000000000000 ) ) ;
#68 = LINE ( 'NONE', #112, #10 ) ;
#69 = VECTOR ( 'NONE', #236, 1000.000000000000000 ) ;
#70 = ORIENTED_EDGE ( 'NONE', *, *, #168, .F. ) ;
#71 = EDGE_CURVE ( 'NONE', #251, #265, #188, .T. ) ;
#72 = CARTESIAN_POINT ( 'NONE',  ( 0.000000000000000000, 1.599999959580600262, 4.000000189989805222 ) ) ;
#73 = CARTESIAN_POINT ( 'NONE',  ( 0.000000000000000000, 0.000000000000000000, 0.000000000000000000 ) ) ;
#74 = ORIENTED_EDGE ( 'NONE', *, *, #246, .F. ) ;
#75 = VECTOR ( 'NONE', #54, 1000.000000000000114 ) ;
#76 = EDGE_CURVE ( 'NONE', #265, #176, #102, .T. ) ;
#77 =( NAMED_UNIT ( * ) SI_UNIT ( $, .STERADIAN. ) SOLID_ANGLE_UNIT ( ) );
#78 = PRODUCT_CONTEXT ( 'NONE', #272, 'mechanical' ) ;
#79 = DIRECTION ( 'NONE',  ( 0.000000000000000000, 0.000000000000000000, -1.000000000000000000 ) ) ;
#80 = VECTOR ( 'NONE', #161, 1000.000000000000114 ) ;
#81 = ORIENTED_EDGE ( 'NONE', *, *, #98, .F. ) ;
#82 = CARTESIAN_POINT ( 'NONE',  ( 0.000000000000000000, 0.000000000000000000, 4.000000189989805222 ) ) ;
#83 = ORIENTED_EDGE ( 'NONE', *, *, #168, .T. ) ;
#84 = CARTESIAN_POINT ( 'NONE',  ( 12.29999959468841553, 0.000000000000000000, 0.000000000000000000 ) ) ;
#85 = ORIENTED_EDGE ( 'NONE', *, *, #220, .F. ) ;
#86 = CARTESIAN_POINT ( 'NONE',  ( 12.29999959468841553, 0.000000000000000000, 4.000000189989805222 ) ) ;
#87 = DIRECTION ( 'NONE',  ( 0.000000000000000000, -0.000000000000000000, 1.000000000000000000 ) ) ;
#88 = LINE ( 'NONE', #86, #139 ) ;
#89 = FACE_OUTER_BOUND ( 'NONE', #169, .T. ) ;
#90 = DIRECTION ( 'NONE',  ( 1.000000000000000000, 0.000000000000000000, 0.000000000000000000 ) ) ;
#91 = EDGE_CURVE ( 'NONE', #123, #258, #1, .T. ) ;
#92 = ORIENTED_EDGE ( 'NONE', *, *, #121, .F. ) ;
#93 = SURFACE_SIDE_STYLE ('',( #52 ) ) ;
#94 =( GEOMETRIC_REPRESENTATION_CONTEXT ( 3 ) GLOBAL_UNCERTAINTY_ASSIGNED_CONTEXT ( ( #144 ) ) GLOBAL_UNIT_ASSIGNED_CONTEXT ( ( #30, #264, #53 ) ) REPRESENTATION_CONTEXT ( 'NONE', 'WORKASPACE' ) );
#95 = ADVANCED_FACE ( 'NONE', ( #109 ), #228, .T. ) ;
#96 = DIRECTION ( 'NONE',  ( 0.000000000000000000, 0.000000000000000000, 1.000000000000000000 ) ) ;
#97 = LINE ( 'NONE', #72, #267 ) ;
#98 = EDGE_CURVE ( 'NONE', #187, #251, #167, .T. ) ;
#99 = PLANE ( 'NONE',  #159 ) ;
#100 = ADVANCED_FACE ( 'NONE', ( #183 ), #179, .F. ) ;
#101 = ORIENTED_EDGE ( 'NONE', *, *, #152, .T. ) ;
#102 = LINE ( 'NONE', #276, #44 ) ;
#103 = PRODUCT ( 'ANT1204F002R0315A', 'ANT1204F002R0315A', '', ( #78 ) ) ;
#104 = ORIENTED_EDGE ( 'NONE', *, *, #116, .T. ) ;
#105 = DIRECTION ( 'NONE',  ( 0.000000000000000000, 0.000000000000000000, 1.000000000000000000 ) ) ;
#106 = VERTEX_POINT ( 'NONE', #274 ) ;
#107 = DIRECTION ( 'NONE',  ( 0.9916453074249585997, -0.1289945125269265080, 0.000000000000000000 ) ) ;
#108 = EDGE_LOOP ( 'NONE', ( #6, #61, #223 ) ) ;
#109 = FACE_OUTER_BOUND ( 'NONE', #33, .T. ) ;
#110 = VECTOR ( 'NONE', #153, 1000.000000000000000 ) ;
#111 = ORIENTED_EDGE ( 'NONE', *, *, #220, .T. ) ;
#112 = CARTESIAN_POINT ( 'NONE',  ( 12.29999959468841553, 1.599999959580600262, 0.000000000000000000 ) ) ;
#113 = SURFACE_STYLE_USAGE ( .BOTH. , #93 ) ;
#114 = AXIS2_PLACEMENT_3D ( 'NONE', #252, #231, #191 ) ;
#115 = CARTESIAN_POINT ( 'NONE',  ( 12.29999959468841553, 0.000000000000000000, 4.000000189989805222 ) ) ;
#116 = EDGE_CURVE ( 'NONE', #176, #255, #142, .T. ) ;
#117 =( LENGTH_UNIT ( ) NAMED_UNIT ( * ) SI_UNIT ( .MILLI., .METRE. ) );
#118 =( NAMED_UNIT ( * ) PLANE_ANGLE_UNIT ( ) SI_UNIT ( $, .RADIAN. ) );
#119 = VECTOR ( 'NONE', #96, 1000.000000000000000 ) ;
#120 = CARTESIAN_POINT ( 'NONE',  ( 0.000000000000000000, 0.000000000000000000, 0.000000000000000000 ) ) ;
#121 = EDGE_CURVE ( 'NONE', #106, #187, #3, .T. ) ;
#122 = DIRECTION ( 'NONE',  ( 0.000000000000000000, 1.000000000000000000, 0.000000000000000000 ) ) ;
#123 = VERTEX_POINT ( 'NONE', #207 ) ;
#124 = CARTESIAN_POINT ( 'NONE',  ( 0.000000000000000000, 1.599999959580600262, 0.000000000000000000 ) ) ;
#125 = ORIENTED_EDGE ( 'NONE', *, *, #76, .F. ) ;
#126 = CARTESIAN_POINT ( 'NONE',  ( 0.000000000000000000, 1.599999959580600262, 4.000000189989805222 ) ) ;
#127 = PLANE ( 'NONE',  #257 ) ;
#128 = CARTESIAN_POINT ( 'NONE',  ( 12.29999959468841553, 1.599999959580600262, 4.000000189989805222 ) ) ;
#129 = DIRECTION ( 'NONE',  ( -0.9916453074249585997, -0.1289945125269265080, 0.000000000000000000 ) ) ;
#130 = CARTESIAN_POINT ( 'NONE',  ( 12.29999959468841553, 0.000000000000000000, 0.000000000000000000 ) ) ;
#131 = PRODUCT_DEFINITION_FORMATION_WITH_SPECIFIED_SOURCE ( 'ANY', '', #103, .NOT_KNOWN. ) ;
#132 = DIRECTION ( 'NONE',  ( 0.000000000000000000, 0.000000000000000000, -1.000000000000000000 ) ) ;
#133 = DIRECTION ( 'NONE',  ( 0.000000000000000000, 0.000000000000000000, 1.000000000000000000 ) ) ;
#134 = FACE_OUTER_BOUND ( 'NONE', #174, .T. ) ;
#135 = PLANE ( 'NONE',  #244 ) ;
#136 = APPLICATION_CONTEXT ( 'automotive_design' ) ;
#137 = CARTESIAN_POINT ( 'NONE',  ( 0.000000000000000000, 0.000000000000000000, 0.000000000000000000 ) ) ;
#138 = CARTESIAN_POINT ( 'NONE',  ( 0.000000000000000000, 0.000000000000000000, 0.000000000000000000 ) ) ;
#139 = VECTOR ( 'NONE', #170, 1000.000000000000000 ) ;
#140 = CARTESIAN_POINT ( 'NONE',  ( 12.29999959468841553, 0.000000000000000000, 4.000000189989805222 ) ) ;
#141 = EDGE_LOOP ( 'NONE', ( #178, #85, #23 ) ) ;
#142 = LINE ( 'NONE', #42, #233 ) ;
#143 = EDGE_CURVE ( 'NONE', #123, #251, #146, .T. ) ;
#144 = UNCERTAINTY_MEASURE_WITH_UNIT (LENGTH_MEASURE( 1.000000000000000082E-05 ), #30, 'distance_accuracy_value', 'NONE');
#145 = ORIENTED_EDGE ( 'NONE', *, *, #249, .T. ) ;
#146 = LINE ( 'NONE', #234, #69 ) ;
#147 = ORIENTED_EDGE ( 'NONE', *, *, #184, .T. ) ;
#148 = DIRECTION ( 'NONE',  ( 1.000000000000000000, 0.000000000000000000, -0.000000000000000000 ) ) ;
#149 = PLANE ( 'NONE',  #227 ) ;
#150 = VECTOR ( 'NONE', #129, 1000.000000000000000 ) ;
#151 = ORIENTED_EDGE ( 'NONE', *, *, #143, .F. ) ;
#152 = EDGE_CURVE ( 'NONE', #187, #265, #58, .T. ) ;
#153 = DIRECTION ( 'NONE',  ( 1.000000000000000000, 0.000000000000000000, 0.000000000000000000 ) ) ;
#154 =( GEOMETRIC_REPRESENTATION_CONTEXT ( 3 ) GLOBAL_UNCERTAINTY_ASSIGNED_CONTEXT ( ( #269 ) ) GLOBAL_UNIT_ASSIGNED_CONTEXT ( ( #117, #118, #77 ) ) REPRESENTATION_CONTEXT ( 'NONE', 'WORKASPACE' ) );
#155 = ORIENTED_EDGE ( 'NONE', *, *, #166, .T. ) ;
#156 = CARTESIAN_POINT ( 'NONE',  ( 0.000000000000000000, 0.000000000000000000, 0.000000000000000000 ) ) ;
#157 = ORIENTED_EDGE ( 'NONE', *, *, #249, .F. ) ;
#158 = CARTESIAN_POINT ( 'NONE',  ( 0.000000000000000000, 1.599999959580600262, 0.000000000000000000 ) ) ;
#159 = AXIS2_PLACEMENT_3D ( 'NONE', #16, #122, #212 ) ;
#160 = FACE_OUTER_BOUND ( 'NONE', #49, .T. ) ;
#161 = DIRECTION ( 'NONE',  ( 0.000000000000000000, -0.3713906530590801447, -0.9284767002032683347 ) ) ;
#162 = EDGE_LOOP ( 'NONE', ( #104, #45, #262 ) ) ;
#163 = EDGE_CURVE ( 'NONE', #258, #251, #46, .T. ) ;
#164 = DIRECTION ( 'NONE',  ( 0.000000000000000000, 1.000000000000000000, -0.000000000000000000 ) ) ;
#165 = ORIENTED_EDGE ( 'NONE', *, *, #225, .F. ) ;
#166 = EDGE_CURVE ( 'NONE', #265, #106, #229, .T. ) ;
#167 = LINE ( 'NONE', #172, #56 ) ;
#168 = EDGE_CURVE ( 'NONE', #251, #176, #88, .T. ) ;
#169 = EDGE_LOOP ( 'NONE', ( #151, #165, #70 ) ) ;
#170 = DIRECTION ( 'NONE',  ( -0.9509772280537742706, 0.000000000000000000, -0.3092609120518785004 ) ) ;
#171 = DIRECTION ( 'NONE',  ( -1.000000000000000000, 0.000000000000000000, -0.000000000000000000 ) ) ;
#172 = CARTESIAN_POINT ( 'NONE',  ( 12.29999959468841553, 1.599999959580600262, 4.000000189989805222 ) ) ;
#173 = ADVANCED_FACE ( 'NONE', ( #259 ), #256, .F. ) ;
#174 = EDGE_LOOP ( 'NONE', ( #260, #41, #208 ) ) ;
#175 = DIRECTION ( 'NONE',  ( -1.000000000000000000, 0.000000000000000000, 0.000000000000000000 ) ) ;
#176 = VERTEX_POINT ( 'NONE', #48 ) ;
#177 = VECTOR ( 'NONE', #66, 1000.000000000000000 ) ;
#178 = ORIENTED_EDGE ( 'NONE', *, *, #91, .T. ) ;
#179 = PLANE ( 'NONE',  #114 ) ;
#180 = EDGE_LOOP ( 'NONE', ( #232, #83, #125 ) ) ;
#181 = MECHANICAL_DESIGN_GEOMETRIC_PRESENTATION_REPRESENTATION (  '', ( #240 ), #94 ) ;
#182 = MANIFOLD_SOLID_BREP ( 'Imported1', #224 ) ;
#183 = FACE_OUTER_BOUND ( 'NONE', #230, .T. ) ;
#184 = EDGE_CURVE ( 'NONE', #258, #187, #97, .T. ) ;
#185 = ORIENTED_EDGE ( 'NONE', *, *, #91, .F. ) ;
#186 = CARTESIAN_POINT ( 'NONE',  ( 12.29999959468841553, 1.599999959580600262, 0.000000000000000000 ) ) ;
#187 = VERTEX_POINT ( 'NONE', #128 ) ;
#188 = LINE ( 'NONE', #140, #177 ) ;
#189 = CARTESIAN_POINT ( 'NONE',  ( 0.000000000000000000, 0.000000000000000000, 0.000000000000000000 ) ) ;
#190 = AXIS2_PLACEMENT_3D ( 'NONE', #124, #164, #105 ) ;
#191 = DIRECTION ( 'NONE',  ( -1.000000000000000000, 0.000000000000000000, -0.000000000000000000 ) ) ;
#192 = FACE_OUTER_BOUND ( 'NONE', #162, .T. ) ;
#193 = DIRECTION ( 'NONE',  ( -1.000000000000000000, 0.000000000000000000, -0.000000000000000000 ) ) ;
#194 = CARTESIAN_POINT ( 'NONE',  ( 12.29999959468841553, 0.000000000000000000, 0.000000000000000000 ) ) ;
#195 = ADVANCED_FACE ( 'NONE', ( #219 ), #135, .T. ) ;
#196 = LINE ( 'NONE', #73, #50 ) ;
#197 = VECTOR ( 'NONE', #107, 1000.000000000000000 ) ;
#198 = PRODUCT_RELATED_PRODUCT_CATEGORY ( 'part', '', ( #103 ) ) ;
#199 = ADVANCED_FACE ( 'NONE', ( #134 ), #221, .F. ) ;
#200 = DIRECTION ( 'NONE',  ( -0.000000000000000000, 0.000000000000000000, -1.000000000000000000 ) ) ;
#201 = DIRECTION ( 'NONE',  ( 1.000000000000000000, 0.000000000000000000, 0.000000000000000000 ) ) ;
#202 = APPLICATION_PROTOCOL_DEFINITION ( 'draft international standard', 'automotive_design', 1998, #136 ) ;
#203 = PLANE ( 'NONE',  #57 ) ;
#204 = VECTOR ( 'NONE', #62, 1000.000000000000000 ) ;
#205 = DIRECTION ( 'NONE',  ( 1.000000000000000000, 0.000000000000000000, -0.000000000000000000 ) ) ;
#206 = FILL_AREA_STYLE ('',( #214 ) ) ;
#207 = CARTESIAN_POINT ( 'NONE',  ( 0.000000000000000000, 0.000000000000000000, 4.000000189989805222 ) ) ;
#208 = ORIENTED_EDGE ( 'NONE', *, *, #98, .T. ) ;
#209 = AXIS2_PLACEMENT_3D ( 'NONE', #120, #64, #148 ) ;
#210 = DIRECTION ( 'NONE',  ( -1.000000000000000000, 0.000000000000000000, 0.000000000000000000 ) ) ;
#211 = ORIENTED_EDGE ( 'NONE', *, *, #143, .T. ) ;
#212 = DIRECTION ( 'NONE',  ( 0.000000000000000000, -0.000000000000000000, 1.000000000000000000 ) ) ;
#213 = DIRECTION ( 'NONE',  ( 1.000000000000000000, 0.000000000000000000, -0.000000000000000000 ) ) ;
#214 = FILL_AREA_STYLE_COLOUR ( '', #28 ) ;
#215 = PLANE ( 'NONE',  #245 ) ;
#216 = AXIS2_PLACEMENT_3D ( 'NONE', #138, #226, #201 ) ;
#217 = FACE_OUTER_BOUND ( 'NONE', #59, .T. ) ;
#218 = ORIENTED_EDGE ( 'NONE', *, *, #163, .T. ) ;
#219 = FACE_OUTER_BOUND ( 'NONE', #141, .T. ) ;
#220 = EDGE_CURVE ( 'NONE', #255, #258, #241, .T. ) ;
#221 = PLANE ( 'NONE',  #19 ) ;
#222 = CARTESIAN_POINT ( 'NONE',  ( 0.000000000000000000, 1.599999959580600262, 0.000000000000000000 ) ) ;
#223 = ORIENTED_EDGE ( 'NONE', *, *, #166, .F. ) ;
#224 = CLOSED_SHELL ( 'NONE', ( #43, #199, #268, #20, #24, #173, #95, #55, #195, #271, #100, #40 ) ) ;
#225 = EDGE_CURVE ( 'NONE', #176, #123, #196, .T. ) ;
#226 = DIRECTION ( 'NONE',  ( 0.000000000000000000, 0.000000000000000000, 1.000000000000000000 ) ) ;
#227 = AXIS2_PLACEMENT_3D ( 'NONE', #36, #14, #270 ) ;
#228 = PLANE ( 'NONE',  #190 ) ;
#229 = LINE ( 'NONE', #250, #248 ) ;
#230 = EDGE_LOOP ( 'NONE', ( #211, #63, #185 ) ) ;
#231 = DIRECTION ( 'NONE',  ( 0.000000000000000000, 0.000000000000000000, -1.000000000000000000 ) ) ;
#232 = ORIENTED_EDGE ( 'NONE', *, *, #71, .F. ) ;
#233 = VECTOR ( 'NONE', #7, 1000.000000000000000 ) ;
#234 = CARTESIAN_POINT ( 'NONE',  ( 0.000000000000000000, 0.000000000000000000, 4.000000189989805222 ) ) ;
#235 = FACE_OUTER_BOUND ( 'NONE', #277, .T. ) ;
#236 = DIRECTION ( 'NONE',  ( 1.000000000000000000, 0.000000000000000000, 0.000000000000000000 ) ) ;
#237 = LINE ( 'NONE', #51, #150 ) ;
#238 = CARTESIAN_POINT ( 'NONE',  ( -4.336808689942017736E-16, 1.599999959580600262, 4.000000189989805222 ) ) ;
#239 = DIRECTION ( 'NONE',  ( 0.000000000000000000, -1.000000000000000000, -0.000000000000000000 ) ) ;
#240 = STYLED_ITEM ( 'NONE', ( #9 ), #182 ) ;
#241 = LINE ( 'NONE', #266, #119 ) ;
#242 = EDGE_CURVE ( 'NONE', #255, #123, #32, .T. ) ;
#243 = DIRECTION ( 'NONE',  ( -0.000000000000000000, 0.000000000000000000, 1.000000000000000000 ) ) ;
#244 = AXIS2_PLACEMENT_3D ( 'NONE', #156, #175, #11 ) ;
#245 = AXIS2_PLACEMENT_3D ( 'NONE', #67, #239, #132 ) ;
#246 = EDGE_CURVE ( 'NONE', #255, #106, #261, .T. ) ;
#247 = PRODUCT_DEFINITION_SHAPE ( 'NONE', 'NONE',  #4 ) ;
#248 = VECTOR ( 'NONE', #39, 1000.000000000000000 ) ;
#249 = EDGE_CURVE ( 'NONE', #106, #258, #68, .T. ) ;
#250 = CARTESIAN_POINT ( 'NONE',  ( 12.29999959468841553, 0.000000000000000000, 0.000000000000000000 ) ) ;
#251 = VERTEX_POINT ( 'NONE', #115 ) ;
#252 = CARTESIAN_POINT ( 'NONE',  ( 0.000000000000000000, 0.000000000000000000, 4.000000189989805222 ) ) ;
#253 = EDGE_LOOP ( 'NONE', ( #155, #47, #101 ) ) ;
#254 = DIRECTION ( 'NONE',  ( 1.000000000000000000, 0.000000000000000000, 0.000000000000000000 ) ) ;
#255 = VERTEX_POINT ( 'NONE', #12 ) ;
#256 = PLANE ( 'NONE',  #209 ) ;
#257 = AXIS2_PLACEMENT_3D ( 'NONE', #29, #87, #213 ) ;
#258 = VERTEX_POINT ( 'NONE', #238 ) ;
#259 = FACE_OUTER_BOUND ( 'NONE', #108, .T. ) ;
#260 = ORIENTED_EDGE ( 'NONE', *, *, #71, .T. ) ;
#261 = LINE ( 'NONE', #222, #110 ) ;
#262 = ORIENTED_EDGE ( 'NONE', *, *, #31, .T. ) ;
#263 = VECTOR ( 'NONE', #22, 1000.000000000000000 ) ;
#264 =( NAMED_UNIT ( * ) PLANE_ANGLE_UNIT ( ) SI_UNIT ( $, .RADIAN. ) );
#265 = VERTEX_POINT ( 'NONE', #130 ) ;
#266 = CARTESIAN_POINT ( 'NONE',  ( 0.000000000000000000, 1.599999959580600262, 0.000000000000000000 ) ) ;
#267 = VECTOR ( 'NONE', #90, 1000.000000000000000 ) ;
#268 = ADVANCED_FACE ( 'NONE', ( #217 ), #149, .F. ) ;
#269 = UNCERTAINTY_MEASURE_WITH_UNIT (LENGTH_MEASURE( 1.000000000000000082E-05 ), #117, 'distance_accuracy_value', 'NONE');
#270 = DIRECTION ( 'NONE',  ( 0.000000000000000000, -0.000000000000000000, -1.000000000000000000 ) ) ;
#271 = ADVANCED_FACE ( 'NONE', ( #160 ), #203, .F. ) ;
#272 = APPLICATION_CONTEXT ( 'automotive_design' ) ;
#273 = AXIS2_PLACEMENT_3D ( 'NONE', #189, #8, #171 ) ;
#274 = CARTESIAN_POINT ( 'NONE',  ( 12.29999959468841553, 1.599999959580600262, -2.168404344971008868E-16 ) ) ;
#275 = ORIENTED_EDGE ( 'NONE', *, *, #225, .T. ) ;
#276 = CARTESIAN_POINT ( 'NONE',  ( 12.29999959468841553, 0.000000000000000000, 0.000000000000000000 ) ) ;
#277 = EDGE_LOOP ( 'NONE', ( #81, #2, #218 ) ) ;
ENDSEC;
END-ISO-10303-21;
